<svg version="1" xmlns="http://www.w3.org/2000/svg" width="682.667" height="682.667"
     viewBox="0 0 512.000000 512.000000">
    <path d="M246.3 4c-6 1.3-14.4 5.6-19 9.8-3.8 3.5-9.3 10.3-9.3 11.4 0 .5 2.4 1.2 10.5 3.4.6.1 6.2 1.6 12.5 3.3 13.8 3.8 12.9 3.6 21 5.6 3.6.9 9.6 2.6 13.4 3.7 3.8 1.1 7.6 2.1 8.5 2.3.9.2 9.5 2.4 19.1 5 9.6 2.6 23.1 6.2 30 8.1 6.9 1.8 20.1 5.3 29.3 7.8 17.8 4.8 20.8 5.4 16.7 3.3-1.4-.7-24.5-14.1-51.5-29.7C300.6 22.4 275.6 8.4 272 6.7c-7.1-3.2-17.9-4.4-25.7-2.7zM140.8 26.6c-8.3 1.9-15.4 5.9-21.5 12-5 4.9-9.7 13-10.5 17.9-.3 2 .3 2 82.5 2.1 45.5 0 82.7-.3 82.7-.8 0-.4-.3-.8-.7-.9-1.7-.1-4.2-.8-11.6-2.8-4.3-1.3-8.8-2.4-9.9-2.6-1.2-.3-3.5-.9-5.2-1.4-1.7-.6-7.6-2.2-13.1-3.6-5.5-1.5-14.9-4-21-5.6-62.3-16.7-61.5-16.6-71.7-14.3zM330 76.7c7.4 7.7 12.5 17 15.6 28.8.4 1.6.9 68.7 1 149 .1 80.3.3 146.4.4 147 .1 1.1 4.6-15.2 17.5-63.5 2.5-9.6 5.5-20.7 6.6-24.5 1.1-3.9 7.5-27.9 14.3-53.5 15.1-56.4 16.1-60 18.7-69.8 1.1-4.2 4.8-17.8 8.1-30.2 4.3-15.7 6.2-24.7 6.4-29.8.8-20-11.9-36.8-32.1-42.6-5.7-1.7-61.4-16.6-61.8-16.6-.2 0 2.2 2.6 5.3 5.7z"/>
    <path d="M49 75.2C37.8 76.3 28.7 81 21.2 89.5c-3.9 4.4-7.9 11.7-8.8 15.9-.3 1.2-.8 3.2-1.1 4.6-.3 1.4-.5 81.9-.5 179l-.1 176.5 2.2 6.4C17.8 486 28.5 496 43 500c3.5 1 32.9 1.3 126 1.3 66.8 0 123.7-.3 126.4-.7 11.1-1.7 23.3-10.2 29.3-20.4s5.6 2.7 5.8-190.2c.1-146.1-.1-177.5-1.2-182.4-3.4-14.8-14.8-27-29.2-31.2-5.1-1.5-17.2-1.7-125.1-1.8-65.7 0-122.4.2-126 .6zM425 96.2c1.2 1.8 3.2 5.6 4.5 8.4 7 15.2 7 27.5 0 52.9-2.5 9.3-7.3 27.1-10.6 39.5-3.3 12.4-7 25.9-8.1 30-1.1 4.1-2.4 8.8-2.8 10.5-2.5 9.9-26.4 99.1-28 104.5-4.8 16.6-20.1 75.3-19.7 75.6.4.5 35.7-60.1 35.7-61.3 0-.4.6-1.4 1.4-2.2.7-.9 2.5-3.6 3.8-6.1 1.4-2.5 10.9-18.9 21-36.5 10.2-17.6 23.8-41.2 30.3-52.5 6.5-11.3 12.1-21 12.5-21.5.4-.6 1.8-3 3.2-5.5 1.4-2.5 7.7-13.5 14-24.5 16.1-27.8 15.5-26.8 17.3-32.8 1.9-6.5 2.1-17.2.5-22.4-2.1-6.9-6.4-14.3-11.1-19.1-3.1-3.1-11.3-8.5-24.5-16.1-11-6.3-24.8-14.3-30.8-17.8-10.5-6.1-10.7-6.2-8.6-3.1z"/>
</svg>
